<?xml version="1.0" encoding="utf-8"?>
<!-- Generator: Adobe Illustrator 24.1.1, SVG Export Plug-In . SVG Version: 6.00 Build 0)  -->
<svg version="1.1" id="Capa_1" xmlns="http://www.w3.org/2000/svg" xmlns:xlink="http://www.w3.org/1999/xlink" x="0px" y="0px"
	 viewBox="0 0 457.4 226.8" style="enable-background:new 0 0 457.4 226.8;" xml:space="preserve">
<style type="text/css">
	.st0{fill:#EFAA0F;}
</style>
<g>
	<g>
		<path class="st0" d="M164.9,45.3h7.4v52.4h-7.4V45.3z M168.6,70.4h16.8c1.6,0,3-0.4,4.2-1.1c1.2-0.7,2.1-1.8,2.8-3.2
			c0.7-1.4,1-2.9,1-4.7c0-1.8-0.3-3.4-1-4.8c-0.7-1.4-1.6-2.4-2.8-3.2c-1.2-0.8-2.6-1.1-4.2-1.1h-16.8v-7h16.5c3.1,0,5.9,0.7,8.3,2
			c2.4,1.3,4.2,3.2,5.5,5.6c1.3,2.4,2,5.2,2,8.4c0,3.2-0.7,6-2,8.4c-1.3,2.4-3.2,4.3-5.5,5.6c-2.4,1.3-5.1,2-8.3,2h-16.5V70.4z"/>
		<path class="st0" d="M226.6,76.4v21.3h-7.4V76.4l-16-31.1h8.2L222.9,69l11.5-23.7h8.2L226.6,76.4z"/>
		<path class="st0" d="M285.7,45.3h6.9v52.4h-7.2V58.5l0.4,2.3l-12.9,29.7h-5.1l-12.9-29l0.4-3v39.3H248V45.3h6.9l15.4,34.6
			L285.7,45.3z"/>
		<path class="st0" d="M22.9,186.4h-7.4v-52.4h7.4V186.4z"/>
		<path class="st0" d="M35.1,148.9h7.4v37.4h-7.4V148.9z M57.9,163.7c0-2.6-0.7-4.7-2.1-6.1s-3.3-2.2-5.8-2.2
			c-2.4,0-4.3,0.6-5.6,1.9c-1.3,1.3-2,3.1-2,5.4l-0.8-7.2c1.2-2.3,2.7-4,4.5-5.2c1.9-1.2,3.9-1.8,6.2-1.8c4.1,0,7.2,1.3,9.4,4
			c2.2,2.7,3.3,6.4,3.3,11.3v22.7h-7.4V163.7z"/>
		<path class="st0" d="M81.2,185.2c-1.9-1.2-3.4-2.9-4.4-5.2c-1-2.3-1.5-5-1.5-8.2v-8.3c0-3.2,0.5-6,1.5-8.3c1-2.3,2.4-4,4.3-5.2
			c1.9-1.2,4.2-1.8,6.8-1.8c2.2,0,4.2,0.6,6.1,1.7s3.3,2.8,4.5,4.9l-0.8,7.6c0-1.6-0.3-2.9-0.9-4.1c-0.6-1.1-1.4-2-2.5-2.6
			c-1.1-0.6-2.4-0.9-4-0.9c-2.4,0-4.3,0.8-5.6,2.3s-2,3.6-2,6.4v8.2c0,2.7,0.7,4.8,2,6.3s3.2,2.2,5.6,2.2c1.6,0,2.9-0.3,4-0.9
			c1.1-0.6,1.9-1.5,2.5-2.7s0.9-2.5,0.9-4.1l0.5,7.9c-0.7,1.9-2,3.4-3.7,4.7c-1.7,1.3-3.8,1.9-6.3,1.9
			C85.5,187,83.2,186.4,81.2,185.2z M97.7,133.9h7.4v52.4h-7.4V133.9z"/>
		<path class="st0" d="M123.6,171.7c0,2.6,0.7,4.6,2,6.1c1.3,1.4,3.2,2.1,5.6,2.1c2.4,0,4.3-0.6,5.6-1.9c1.3-1.3,2-3.1,2-5.4
			l0.5,7.8c-0.8,1.9-2,3.4-3.8,4.7s-3.9,1.9-6.4,1.9c-4.1,0-7.3-1.3-9.6-4c-2.2-2.7-3.4-6.4-3.4-11.2v-22.8h7.4V171.7z M138.8,148.9
			h7.3v37.4h-7.3V148.9z"/>
		<path class="st0" d="M157.3,148.9h7.4v37.4h-7.4V148.9z M179.6,163.7c0-2.6-0.6-4.7-1.9-6.1s-3.1-2.2-5.5-2.2
			c-2.4,0-4.3,0.6-5.6,1.9c-1.3,1.3-2,3.1-2,5.4l-0.8-7.2c1.2-2.3,2.7-4,4.5-5.2c1.9-1.2,3.9-1.8,6.2-1.8c2.6,0,4.9,0.6,6.7,1.8
			c1.9,1.2,3.3,2.9,4.2,5.2c1,2.3,1.5,5,1.5,8.3v22.7h-7.4V163.7z M202,163.7c0-2.6-0.7-4.7-2.1-6.1s-3.3-2.2-5.8-2.2
			c-2.3,0-4.1,0.7-5.3,2.1c-1.3,1.4-1.9,3.4-1.9,5.9l-1.5-7.2c1.2-2.5,2.7-4.4,4.7-5.8c1.9-1.4,4.1-2,6.4-2c2.7,0,5,0.6,6.9,1.8
			c1.9,1.2,3.4,2.9,4.4,5.2c1,2.3,1.5,5,1.5,8.3v22.7H202V163.7z"/>
		<path class="st0" d="M227,185c-2.5-1.3-4.3-3.2-5.6-5.7c-1.3-2.5-1.9-5.5-1.9-9.1v-4.2c0-3.7,0.6-6.9,1.9-9.5c1.2-2.6,3-4.6,5.4-6
			c2.4-1.4,5.2-2.1,8.5-2.1c3.1,0,5.8,0.8,8,2.3c2.2,1.6,3.9,3.8,5.1,6.8s1.7,6.5,1.7,10.6v2.5h-25.2v-5.9H243
			c-0.2-3.1-1-5.4-2.4-7.1c-1.4-1.7-3.2-2.5-5.5-2.5c-2.8,0-4.9,0.9-6.5,2.7c-1.5,1.8-2.3,4.4-2.3,7.8v4.8c0,3.1,0.8,5.5,2.5,7.1
			c1.6,1.7,4,2.5,7,2.5c1.5,0,3-0.3,4.4-0.9c1.5-0.6,2.8-1.4,3.9-2.5l4.8,4.8c-1.9,1.8-3.9,3.2-6.2,4.1c-2.3,1-4.6,1.5-7,1.5
			C232.4,186.9,229.4,186.3,227,185z"/>
		<path class="st0" d="M260.1,148.9h7.4v37.4h-7.4V148.9z M282.9,163.7c0-2.6-0.7-4.7-2.1-6.1c-1.4-1.4-3.3-2.2-5.8-2.2
			c-2.4,0-4.3,0.6-5.6,1.9s-2,3.1-2,5.4l-0.8-7.2c1.2-2.3,2.7-4,4.5-5.2c1.9-1.2,3.9-1.8,6.2-1.8c4.1,0,7.2,1.3,9.4,4
			s3.3,6.4,3.3,11.3v22.7h-7.4V163.7z"/>
		<path class="st0" d="M298.5,148.9h16.9v6.6h-16.9V148.9z M304.5,184.1c-1.4-1.7-2.1-4.1-2.1-7.4v-38.6h7.4v38.7
			c0,0.9,0.2,1.6,0.5,2.1c0.4,0.5,0.9,0.7,1.6,0.7h3.5v7h-4.3C308.1,186.6,305.9,185.7,304.5,184.1z"/>
		<path class="st0" d="M327.1,184.1c-2.3-1.9-3.4-4.8-3.4-8.7c0-3.7,1-6.5,3.1-8.3s5.3-2.8,9.5-2.8h10.6l0.5,5.9h-11.1
			c-1.9,0-3.4,0.4-4.3,1.3c-0.9,0.9-1.4,2.2-1.4,3.9c0,1.9,0.6,3.3,1.9,4.2c1.3,0.9,3.2,1.4,5.8,1.4c2.8,0,4.9-0.3,6.3-0.9
			c1.4-0.6,2.1-1.5,2.1-2.8l0.8,5.3c-0.6,1-1.4,1.8-2.4,2.5c-1,0.6-2,1.1-3.3,1.5c-1.3,0.3-2.7,0.5-4.2,0.5
			C332.8,186.9,329.4,186,327.1,184.1z M346.6,162.7c0-2.5-0.7-4.4-2-5.7c-1.3-1.4-3.2-2-5.6-2c-1.5,0-3,0.2-4.4,0.7
			c-1.4,0.5-2.7,1.1-3.8,1.9l-5.4-3.7c1.4-1.7,3.3-3,5.6-4s4.9-1.4,7.7-1.4c3.1,0,5.8,0.5,8,1.6c2.2,1.1,3.9,2.7,5,4.8
			c1.2,2.1,1.7,4.6,1.7,7.5v24.1h-7V162.7z"/>
		<path class="st0" d="M364.8,148.9h7.4v37.4h-7.4V148.9z M382.9,156c-1-0.4-2.1-0.6-3.4-0.6c-2.3,0-4.1,0.6-5.4,1.9
			s-1.9,3.1-1.9,5.4l-0.8-7.2c1.2-2.2,2.6-4,4.5-5.2s3.8-1.9,6.1-1.9c1.7,0,3.3,0.2,4.6,0.7c1.4,0.5,2.6,1.2,3.6,2.2l-4.8,6.5
			C384.7,157,383.9,156.4,382.9,156z"/>
		<path class="st0" d="M396.3,133.9h7.4v7.4h-7.4V133.9z M396.3,148.9h7.4v37.4h-7.4V148.9z"/>
		<path class="st0" d="M416.5,184.1c-2.3-1.9-3.4-4.8-3.4-8.7c0-3.7,1-6.5,3.1-8.3s5.3-2.8,9.5-2.8h10.6l0.5,5.9h-11.1
			c-1.9,0-3.4,0.4-4.3,1.3c-0.9,0.9-1.4,2.2-1.4,3.9c0,1.9,0.6,3.3,1.9,4.2c1.3,0.9,3.2,1.4,5.8,1.4c2.8,0,4.9-0.3,6.3-0.9
			c1.4-0.6,2.1-1.5,2.1-2.8l0.8,5.3c-0.6,1-1.4,1.8-2.4,2.5c-1,0.6-2,1.1-3.3,1.5c-1.3,0.3-2.7,0.5-4.2,0.5
			C422.2,186.9,418.8,186,416.5,184.1z M436,162.7c0-2.5-0.7-4.4-2-5.7c-1.3-1.4-3.2-2-5.6-2c-1.5,0-3,0.2-4.4,0.7
			c-1.4,0.5-2.7,1.1-3.8,1.9l-5.4-3.7c1.4-1.7,3.3-3,5.6-4s4.9-1.4,7.7-1.4c3.1,0,5.8,0.5,8,1.6c2.2,1.1,3.9,2.7,5,4.8
			c1.2,2.1,1.7,4.6,1.7,7.5v24.1h-7V162.7z"/>
	</g>
</g>
</svg>
