<?xml version="1.0" encoding="utf-8"?>
<!-- Generator: Adobe Illustrator 24.1.1, SVG Export Plug-In . SVG Version: 6.00 Build 0)  -->
<svg version="1.1" id="Capa_1" xmlns="http://www.w3.org/2000/svg" xmlns:xlink="http://www.w3.org/1999/xlink" x="0px" y="0px"
	 viewBox="0 0 457.4 226.8" style="enable-background:new 0 0 457.4 226.8;" xml:space="preserve">
<style type="text/css">
	.st0{fill:#EFAA0F;}
</style>
<g>
	<g>
		<path class="st0" d="M120.6,66.2h12.5v88.7h-12.5V66.2z M127,108.7h28.4c2.7,0,5-0.6,7.1-1.9c2-1.3,3.6-3.1,4.7-5.4
			c1.1-2.3,1.7-5,1.7-8c0-3.1-0.6-5.7-1.7-8.1c-1.1-2.3-2.7-4.1-4.7-5.4c-2-1.3-4.4-1.9-7.1-1.9H127V66.2h28c5.3,0,9.9,1.1,14,3.4
			c4,2.3,7.2,5.4,9.4,9.6c2.2,4.1,3.3,8.9,3.3,14.3c0,5.4-1.1,10.2-3.3,14.3c-2.2,4.1-5.3,7.3-9.4,9.5c-4,2.2-8.7,3.4-14,3.4h-28
			V108.7z"/>
		<path class="st0" d="M225.1,118.8v36.1h-12.5v-36.1l-27-52.7h13.9l19.4,40l19.4-40h13.9L225.1,118.8z"/>
		<path class="st0" d="M325.1,66.2h11.7v88.7h-12.1V88.4l0.6,3.9l-21.9,50.2h-8.7l-21.9-49l0.6-5.1v66.5h-12.1V66.2H273l26.1,58.6
			L325.1,66.2z"/>
	</g>
</g>
</svg>
