<?xml version="1.0" encoding="utf-8"?>
<!-- Generator: Adobe Illustrator 24.1.1, SVG Export Plug-In . SVG Version: 6.00 Build 0)  -->
<svg version="1.1" id="Capa_1" xmlns="http://www.w3.org/2000/svg" xmlns:xlink="http://www.w3.org/1999/xlink" x="0px" y="0px"
	 viewBox="0 0 228.7 39.1" style="enable-background:new 0 0 228.7 39.1;" xml:space="preserve">
<style type="text/css">
	.st0{fill:#F4CD0C;}
</style>
<g>
	<path class="st0" d="M98.1,2.2C98.5,2.1,99,2.1,99.5,2c0.5,0,1.1-0.1,1.8-0.1c0.8,0,1.5,0.1,2.1,0.3s1.1,0.4,1.5,0.8
		c0.3,0.3,0.6,0.7,0.8,1.1s0.3,1,0.3,1.5c0,0.6-0.1,1.1-0.3,1.6s-0.4,0.9-0.7,1.2c-0.4,0.5-1,0.8-1.7,1.1s-1.4,0.4-2.2,0.4
		c-0.3,0-0.5,0-0.7,0s-0.4,0-0.6-0.1v2.6v2.6h-0.8h-0.8V8.5V2.2z M99.8,8.4c0.2,0.1,0.4,0.1,0.6,0.1s0.5,0,0.8,0
		c1,0,1.8-0.2,2.4-0.7s0.9-1.1,0.9-2c0-0.8-0.3-1.5-0.8-1.9s-1.3-0.6-2.2-0.6c-0.4,0-0.7,0-0.9,0s-0.5,0.1-0.6,0.1v2.5V8.4z"/>
	<path class="st0" d="M110.9,14.9v-2.7V9.4l-2-3.7l-2-3.7h0.9h0.9l0.9,1.8l0.9,1.8c0.2,0.5,0.5,0.9,0.7,1.3s0.4,0.8,0.6,1.3h0h0
		c0.2-0.4,0.4-0.8,0.6-1.3s0.4-0.9,0.7-1.4l0.9-1.8l0.9-1.8h0.9h0.9l-2.1,3.7l-2.1,3.7v2.7v2.7h-0.8H110.9z"/>
	<path class="st0" d="M128.9,9.2c0-0.9-0.1-1.9-0.1-2.8s-0.1-1.9-0.1-2.7h0h0c-0.2,0.7-0.5,1.5-0.7,2.3s-0.6,1.7-0.9,2.5l-1.1,3.1
		l-1.1,3.1h-0.6h-0.6l-1-3l-1-3c-0.3-0.9-0.6-1.8-0.8-2.6s-0.5-1.6-0.6-2.4h0h0c0,0.8-0.1,1.7-0.1,2.7s-0.1,2-0.2,2.9l-0.2,2.7
		l-0.2,2.7h-0.8h-0.8l0.4-6.4l0.4-6.4h1.1h1.1l1.1,3.1l1.1,3.1c0.3,0.8,0.5,1.5,0.7,2.2s0.4,1.4,0.6,2.1h0h0c0.2-0.6,0.4-1.3,0.6-2
		s0.5-1.5,0.8-2.3l1.1-3.1l1.1-3.1h1.1h1.1l0.4,6.4l0.4,6.4h-0.8h-0.8l-0.2-2.8L128.9,9.2z"/>
	<path class="st0" d="M63.6,24.9v6.4v6.4h-0.8H62v-6.4v-6.4h0.8H63.6z"/>
	<path class="st0" d="M66.6,31c0-0.5,0-0.9,0-1.3s0-0.8-0.1-1.2h0.7H68l0,0.8l0,0.8h0h0c0.2-0.4,0.6-0.9,1.1-1.2s1.2-0.5,1.9-0.5
		c0.6,0,1.4,0.2,2.1,0.8s1.1,1.6,1.1,3.1v2.7v2.7h-0.8h-0.8V35v-2.6c0-0.7-0.1-1.4-0.5-1.9s-0.9-0.8-1.6-0.8c-0.5,0-1,0.2-1.4,0.5
		s-0.7,0.7-0.8,1.2c0,0.1-0.1,0.2-0.1,0.4s0,0.3,0,0.4v2.8v2.8h-0.8h-0.8v-3.4V31z"/>
	<path class="st0" d="M85.1,24.2v5.6v5.6c0,0.4,0,0.8,0,1.3s0,0.8,0.1,1.1h-0.7h-0.7l0-0.8l0-0.8h0h0c-0.3,0.5-0.7,1-1.2,1.3
		s-1.2,0.5-1.9,0.5c-1.1,0-2.1-0.5-2.8-1.3s-1.1-2-1.1-3.4c0-1.5,0.5-2.8,1.2-3.6s1.8-1.3,2.9-1.3c0.7,0,1.3,0.2,1.8,0.4
		s0.8,0.6,1,1h0h0v-2.7v-2.7h0.8H85.1z M83.4,32.2c0-0.1,0-0.2,0-0.4s0-0.2-0.1-0.4c-0.1-0.5-0.4-1-0.8-1.4s-1-0.6-1.6-0.6
		c-0.9,0-1.6,0.4-2,1s-0.7,1.5-0.7,2.5c0,0.9,0.2,1.8,0.7,2.4s1.1,1,2,1c0.6,0,1.1-0.2,1.5-0.5s0.8-0.8,0.9-1.5
		c0-0.1,0.1-0.2,0.1-0.3s0-0.2,0-0.4V33V32.2z"/>
	<path class="st0" d="M95.6,35.1c0,0.5,0,0.9,0,1.3s0,0.8,0.1,1.2h-0.7h-0.7l0-0.8l0-0.8h0h0c-0.2,0.4-0.6,0.8-1.1,1.1
		s-1.2,0.6-2,0.6c-0.7,0-1.5-0.2-2.1-0.8s-1-1.6-1-3.2v-2.7v-2.7h0.8h0.8V31v2.5c0,0.9,0.1,1.6,0.5,2.1s0.8,0.8,1.6,0.8
		c0.6,0,1-0.2,1.4-0.5s0.6-0.7,0.8-1c0-0.1,0.1-0.3,0.1-0.4s0-0.3,0-0.5v-2.8v-2.8h0.8h0.8v3.3V35.1z"/>
	<path class="st0" d="M98.4,31c0-0.5,0-0.9,0-1.3s0-0.8-0.1-1.2H99h0.7l0,0.7l0,0.7h0h0c0.3-0.4,0.6-0.9,1.1-1.2s1.1-0.5,1.8-0.5
		c0.6,0,1.2,0.2,1.6,0.5s0.8,0.8,1,1.3h0h0c0.1-0.3,0.3-0.5,0.5-0.7s0.4-0.4,0.6-0.5c0.3-0.2,0.6-0.4,0.9-0.5s0.7-0.2,1.1-0.2
		c0.6,0,1.4,0.2,2,0.8s1.1,1.6,1.1,3.2V35v2.7h-0.8h-0.8v-2.6v-2.6c0-0.9-0.2-1.6-0.5-2.1s-0.8-0.7-1.5-0.7c-0.5,0-0.9,0.2-1.2,0.4
		s-0.6,0.7-0.7,1.1c0,0.1-0.1,0.3-0.1,0.4s0,0.3,0,0.4v2.8v2.8h-0.8h-0.8v-2.8v-2.8c0-0.7-0.2-1.4-0.5-1.8s-0.8-0.7-1.4-0.7
		c-0.5,0-1,0.2-1.3,0.5s-0.6,0.7-0.8,1.1c0,0.1-0.1,0.3-0.1,0.4s0,0.3,0,0.4v2.8v2.8h-0.8h-0.8v-3.4V31z"/>
	<path class="st0" d="M115.1,33.4c0,1.1,0.4,1.9,1,2.4s1.4,0.7,2.2,0.7c0.6,0,1.1-0.1,1.5-0.1s0.7-0.2,1.1-0.3l0.1,0.6l0.1,0.6
		c-0.3,0.1-0.7,0.3-1.2,0.4s-1.1,0.2-1.9,0.2c-1.4,0-2.5-0.5-3.3-1.3s-1.2-2-1.2-3.4c0-1.4,0.4-2.6,1.2-3.5s1.8-1.4,3.2-1.4
		c1.5,0,2.4,0.7,3,1.5s0.8,1.9,0.8,2.8c0,0.2,0,0.3,0,0.5s0,0.2,0,0.3h-3.2H115.1z M120,32.2c0-0.5-0.1-1.2-0.4-1.7s-0.9-1-1.9-1
		c-0.9,0-1.5,0.4-1.9,0.9s-0.6,1.2-0.7,1.8h2.4H120z"/>
	<path class="st0" d="M123.7,31c0-0.5,0-0.9,0-1.3s0-0.8-0.1-1.2h0.7h0.7l0,0.8l0,0.8h0h0c0.2-0.4,0.6-0.9,1.1-1.2s1.2-0.5,1.9-0.5
		c0.6,0,1.4,0.2,2.1,0.8s1.1,1.6,1.1,3.1v2.7v2.7h-0.8h-0.8V35v-2.6c0-0.7-0.1-1.4-0.5-1.9s-0.9-0.8-1.6-0.8c-0.5,0-1,0.2-1.4,0.5
		s-0.7,0.7-0.8,1.2c0,0.1-0.1,0.2-0.1,0.4s0,0.3,0,0.4v2.8v2.8h-0.8h-0.8v-3.4V31z"/>
	<path class="st0" d="M136.2,25.8v1.3v1.3h1.2h1.2v0.6v0.6h-1.2h-1.2v2.5v2.5c0,0.6,0.1,1,0.3,1.3s0.5,0.5,1,0.5c0.2,0,0.4,0,0.6,0
		s0.3-0.1,0.4-0.1l0,0.6l0,0.6c-0.2,0.1-0.4,0.1-0.6,0.2s-0.5,0.1-0.9,0.1c-0.4,0-0.7-0.1-1-0.2s-0.6-0.3-0.8-0.5
		c-0.2-0.3-0.4-0.6-0.5-1s-0.2-0.9-0.2-1.4v-2.5v-2.5h-0.7h-0.7v-0.6v-0.6h0.7h0.7v-1.1v-1.1l0.8-0.2L136.2,25.8z"/>
	<path class="st0" d="M145.6,37.7l-0.1-0.6l-0.1-0.6h0h0c-0.3,0.4-0.6,0.7-1.1,1s-1.1,0.4-1.7,0.4c-0.9,0-1.6-0.3-2.1-0.8
		s-0.7-1.2-0.7-1.8c0-1.1,0.5-2,1.4-2.6s2.3-0.9,4.1-0.9v-0.1v-0.1c0-0.4-0.1-0.9-0.3-1.3s-0.8-0.8-1.8-0.8c-0.4,0-0.9,0.1-1.3,0.2
		s-0.8,0.3-1.1,0.5l-0.2-0.6l-0.2-0.6c0.4-0.2,0.8-0.4,1.4-0.6s1.1-0.2,1.7-0.2c1.4,0,2.3,0.5,2.8,1.2s0.7,1.7,0.7,2.6v1.7v1.7
		c0,0.4,0,0.8,0,1.2s0.1,0.7,0.1,1h-0.8H145.6z M145.3,33c-0.9,0-1.9,0.1-2.6,0.4s-1.3,0.8-1.3,1.7c0,0.5,0.2,0.9,0.5,1.2
		s0.7,0.4,1.1,0.4c0.6,0,1.1-0.2,1.5-0.5s0.6-0.7,0.8-1.1c0-0.1,0-0.2,0.1-0.3s0-0.2,0-0.3v-0.8V33z"/>
	<path class="st0" d="M149.6,31.3c0-0.5,0-1,0-1.5s0-0.9-0.1-1.3h0.7h0.7l0,0.9l0,0.9h0h0c0.2-0.6,0.6-1.1,1-1.5s1-0.5,1.5-0.5
		c0.1,0,0.2,0,0.2,0s0.1,0,0.2,0v0.8v0.8c-0.1,0-0.2,0-0.3,0s-0.2,0-0.3,0c-0.6,0-1.1,0.2-1.5,0.6s-0.6,0.9-0.8,1.5
		c0,0.1,0,0.2,0,0.4s0,0.3,0,0.4v2.5v2.5h-0.8h-0.8v-3.2V31.3z"/>
	<path class="st0" d="M157.8,25.9c0,0.3-0.1,0.5-0.3,0.7s-0.4,0.3-0.8,0.3c-0.3,0-0.6-0.1-0.7-0.3s-0.3-0.4-0.3-0.7
		c0-0.3,0.1-0.5,0.3-0.7s0.4-0.3,0.7-0.3c0.3,0,0.6,0.1,0.7,0.3S157.8,25.6,157.8,25.9z M155.9,37.7v-4.6v-4.6h0.8h0.8v4.6v4.6h-0.8
		H155.9z"/>
	<path class="st0" d="M165.5,37.7l-0.1-0.6l-0.1-0.6h0h0c-0.3,0.4-0.6,0.7-1.1,1s-1.1,0.4-1.7,0.4c-0.9,0-1.6-0.3-2.1-0.8
		s-0.7-1.2-0.7-1.8c0-1.1,0.5-2,1.4-2.6s2.3-0.9,4.1-0.9v-0.1v-0.1c0-0.4-0.1-0.9-0.3-1.3s-0.8-0.8-1.8-0.8c-0.4,0-0.9,0.1-1.3,0.2
		s-0.8,0.3-1.1,0.5l-0.2-0.6l-0.2-0.6c0.4-0.2,0.8-0.4,1.4-0.6s1.1-0.2,1.7-0.2c1.4,0,2.3,0.5,2.8,1.2s0.7,1.7,0.7,2.6v1.7v1.7
		c0,0.4,0,0.8,0,1.2s0.1,0.7,0.1,1h-0.8H165.5z M165.2,33c-0.9,0-1.9,0.1-2.6,0.4s-1.3,0.8-1.3,1.7c0,0.5,0.2,0.9,0.5,1.2
		s0.7,0.4,1.1,0.4c0.6,0,1.1-0.2,1.5-0.5s0.6-0.7,0.8-1.1c0-0.1,0-0.2,0.1-0.3s0-0.2,0-0.3v-0.8V33z"/>
</g>
</svg>
